PathFileType	4	(X/Y/Z)	S:\OneDrive - The University of Tokyo\ìåëÂéˆã∆\ÉoÉCÉÅÉJ\ë™íË\hirabayashi_2\Trimmed\Trimmed_Trimmed_ShSs3-51P.trc
DataRate	CameraRate	NumFrames	NumMarkers	Units	OrigDataRate	OrigDataStartFrame	OrigNumFrames
200.00	200.00	      4	51	mm	200.00	215	      1718
Frame#	Time	handRI			handRO			wrRI			wrRO			elbRI			elbRO			shRF			shRU			shRB			handLI			handLO			wrLI			wrLO			elbLI			elbLO			shLF			shLU			shLB			toeR			baRI			baRO			heelR			anRI			anRO			knRI			knRO			troR			toeL			baLI			baLO			heelL			anLI			anLO			knLI			knLO			troL			head			earR			earL			clav			c7			ribR			ribL			xiph			t12			ASISR			ASISL			PSISR			PSISL			ThR			ThL			
		X1	Y1	Z1	X2	Y2	Z2	X3	Y3	Z3	X4	Y4	Z4	X5	Y5	Z5	X6	Y6	Z6	X7	Y7	Z7	X8	Y8	Z8	X9	Y9	Z9	X10	Y10	Z10	X11	Y11	Z11	X12	Y12	Z12	X13	Y13	Z13	X14	Y14	Z14	X15	Y15	Z15	X16	Y16	Z16	X17	Y17	Z17	X18	Y18	Z18	X19	Y19	Z19	X20	Y20	Z20	X21	Y21	Z21	X22	Y22	Z22	X23	Y23	Z23	X24	Y24	Z24	X25	Y25	Z25	X26	Y26	Z26	X27	Y27	Z27	X28	Y28	Z28	X29	Y29	Z29	X30	Y30	Z30	X31	Y31	Z31	X32	Y32	Z32	X33	Y33	Z33	X34	Y34	Z34	X35	Y35	Z35	X36	Y36	Z36	X37	Y37	Z37	X38	Y38	Z38	X39	Y39	Z39	X40	Y40	Z40	X41	Y41	Z41	X42	Y42	Z42	X43	Y43	Z43	X44	Y44	Z44	X45	Y45	Z45	X46	Y46	Z46	X47	Y47	Z47	X48	Y48	Z48	X49	Y49	Z49	X50	Y50	Z50	X51	Y51	Z51	

215	1.070	-586.10779	1578.65149	1637.69153	-608.43011	1671.57727	1655.86072	-624.78021	1561.91223	1697.92383	-674.39893	1630.60083	1706.70947	-750.12903	1525.54199	1937.02515	-671.74927	1507.96411	1928.88452	-731.79376	1471.56140	2253.85962	-754.06799	1368.51611	2225.09277	-806.28577	1369.66907	2115.65991	-1236.55688	1642.32703	1639.87512	-1204.09351	1736.11938	1675.01721	-1201.16882	1628.65063	1707.09778	-1142.17773	1687.59021	1708.67554	-1086.60596	1567.47217	1944.23999	-1172.19971	1561.82703	1941.16821	-1124.47485	1508.06213	2256.20190	-1104.12048	1400.62134	2227.24805	-1074.01282	1397.66150	2119.59497	-766.10748	2527.12524	2973.21509	-815.07751	2514.71631	2902.81372	-722.83539	2534.70972	2887.77124	-782.24036	2590.69629	2716.60205	-821.35406	2502.39771	2749.45996	-727.58942	2535.80005	2749.61987	-823.78674	2273.95264	2449.72998	-710.62085	2269.12256	2442.38867	-688.06799	1966.28772	2107.70239	-863.29321	2555.11597	2958.52686	-826.89166	2527.84302	2893.75317	-905.29016	2573.76831	2878.89771	-829.33240	2600.31152	2705.62964	-821.25610	2516.37720	2745.66650	-902.64111	2569.15381	2746.80762	-857.73950	2271.18018	2435.67896	-969.66711	2296.06396	2425.68872	-1043.63501	2023.77478	2089.53442	-937.41003	1388.63379	2541.22900	-832.83905	1420.64233	2391.25195	-1008.32166	1443.26868	2394.70020	-910.55609	1512.27661	2289.00073	-937.53174	1362.11987	2236.57788	-734.42462	1709.41235	2099.10669	-1054.97241	1765.26416	2088.42969	-890.87177	1686.79517	2241.08130	-890.27728	1701.63135	1986.25513	-750.53406	1869.68701	2168.93408	-1029.74646	1894.63098	2146.81323	-813.16931	1882.73950	1981.85144	-913.87451	1896.50049	1974.96460	-696.37225	2147.19946	2217.91260	-1002.50067	2192.71582	2215.32275	
216	1.075	-586.23761	1578.64355	1637.76672	-608.51416	1671.59253	1655.88721	-625.06750	1562.00037	1698.01477	-675.39508	1629.27942	1706.22876	-750.04297	1526.74329	1937.51013	-671.83429	1509.22217	1929.22656	-730.79156	1473.19189	2254.74927	-754.39532	1370.42712	2224.93042	-807.14972	1373.45740	2115.82129	-1236.60986	1642.27759	1639.76941	-1204.14734	1736.14404	1674.86145	-1201.12683	1628.70105	1706.90649	-1142.14539	1687.72864	1708.43872	-1086.40393	1568.15430	1944.52039	-1171.88513	1562.63477	1941.15076	-1124.81799	1508.55615	2256.51196	-1102.40430	1402.66687	2226.06348	-1071.83240	1401.32922	2118.86621	-766.96576	2514.69312	2995.88672	-816.10010	2504.05518	2924.52124	-723.76270	2524.06299	2910.45068	-782.90393	2583.58276	2740.24365	-822.59985	2494.42554	2771.40381	-728.47260	2527.49683	2772.88965	-824.57483	2273.72827	2467.32544	-710.01129	2266.79126	2460.51611	-687.25824	1970.81360	2119.84814	-864.71838	2542.38550	2982.12158	-827.17554	2516.41504	2915.95605	-906.35345	2563.26392	2902.26416	-830.30206	2592.87085	2729.89185	-821.53986	2508.53564	2767.77588	-903.29810	2560.72314	2770.19238	-857.53467	2269.96313	2453.20996	-970.07245	2293.98193	2443.50854	-1042.98572	2028.34192	2102.26782	-938.68573	1388.32385	2541.84131	-832.84424	1421.49817	2392.18457	-1008.07281	1444.24561	2395.90454	-911.01123	1513.93127	2290.98242	-936.92358	1364.53833	2236.42969	-733.77802	1713.62610	2105.17749	-1054.68201	1770.02087	2095.09717	-891.39575	1688.76831	2246.39038	-889.52081	1708.39648	1993.07349	-749.78162	1872.72705	2178.81348	-1028.92407	1897.84277	2156.50854	-812.73291	1889.84644	1992.05945	-912.33331	1903.93750	1985.23193	-695.56091	2149.18140	2234.02319	-1002.27673	2194.70801	2231.62183	
217	1.080	-586.27856	1578.59167	1637.86841	-608.54987	1671.58374	1655.88062	-625.26837	1562.01794	1698.13196	-675.49524	1629.57666	1706.07092	-750.13416	1528.30908	1937.91943	-671.85724	1510.73950	1929.61621	-730.05585	1474.50476	2255.63672	-755.20404	1372.68311	2224.76147	-807.13550	1377.29224	2117.52148	-1236.68140	1642.25464	1639.66089	-1204.23560	1736.12805	1674.67822	-1201.04504	1628.69763	1706.73682	-1142.09546	1687.89355	1708.20911	-1086.11292	1569.51526	1944.65247	-1171.63477	1563.50281	1941.08643	-1125.63440	1509.59949	2256.95288	-1101.47363	1403.94690	2225.18457	-1069.69312	1404.80151	2118.58008	-768.10950	2502.25806	3017.91333	-816.94946	2492.95020	2946.21021	-724.61047	2513.46289	2932.82764	-782.96051	2575.66113	2763.49243	-822.85864	2486.27319	2794.38330	-729.08716	2519.36890	2795.02954	-824.97546	2272.08789	2484.81689	-710.98285	2264.38330	2478.31592	-686.97028	1975.24768	2132.22241	-865.45197	2530.55615	3004.08716	-828.78046	2504.95776	2937.67383	-907.00854	2552.48291	2925.01880	-831.35950	2585.44287	2753.53857	-822.73907	2500.70264	2789.04102	-904.67053	2552.60742	2792.29346	-857.24231	2267.94434	2470.71704	-971.03558	2292.08716	2461.24487	-1042.92346	2032.81580	2115.06348	-937.44434	1387.92236	2542.17725	-832.67426	1422.50684	2392.93164	-1008.11035	1445.27600	2396.75708	-910.47156	1516.00208	2292.87378	-936.91479	1367.90417	2236.12036	-733.58734	1717.81750	2111.37866	-1054.28162	1774.66577	2101.90161	-890.17889	1690.63416	2251.58521	-887.98279	1714.77295	1998.89478	-749.39417	1875.66187	2188.69067	-1027.92456	1901.26624	2166.25781	-811.75250	1896.91370	2001.99622	-911.77460	1911.17590	1995.49146	-695.30621	2150.85938	2249.90332	-1002.13080	2196.43555	2247.52515	
218	1.085	-586.26453	1578.57861	1637.89380	-608.59680	1671.54834	1655.85620	-625.44092	1562.05469	1698.19971	-675.55176	1629.81897	1705.85645	-750.21204	1529.82336	1938.32983	-671.83160	1511.79492	1929.88757	-729.74500	1476.32251	2256.81616	-755.81763	1374.68323	2224.70068	-808.52478	1380.90979	2117.52856	-1236.73071	1642.23657	1639.55627	-1204.28931	1736.19714	1674.50671	-1200.98462	1628.69507	1706.55286	-1142.09399	1688.10181	1707.80432	-1085.75525	1571.19617	1944.85095	-1171.40637	1564.21692	1941.02795	-1125.95862	1510.35449	2257.58813	-1099.94446	1405.80212	2224.26538	-1067.03992	1408.00647	2118.00171	-768.53046	2490.31372	3039.16284	-818.30328	2481.28491	2967.06274	-725.19531	2502.81470	2954.52515	-783.93073	2568.31494	2786.06763	-823.30219	2477.32617	2815.38794	-729.77228	2511.32568	2816.89868	-825.42639	2270.03003	2502.02539	-710.16406	2261.72534	2495.45044	-686.30847	1979.59509	2144.05542	-866.56775	2518.09985	3026.30103	-829.24792	2494.74658	2959.23071	-908.33630	2541.69775	2947.50537	-831.51239	2578.31372	2775.51123	-823.87207	2492.34009	2810.67407	-905.59424	2544.38428	2814.53833	-858.05762	2265.01953	2488.34302	-972.13239	2289.65039	2478.62183	-1042.21729	2037.28625	2127.71484	-937.18970	1387.46716	2542.70020	-832.49231	1423.41638	2393.73926	-1007.67767	1446.39172	2397.62451	-910.85956	1517.82275	2294.78711	-936.70813	1370.80566	2235.63354	-732.36157	1722.12805	2117.30005	-1053.78674	1779.48010	2108.67627	-890.98254	1692.52051	2256.72852	-887.53467	1722.46826	2004.58691	-749.19000	1878.48547	2198.57227	-1026.69055	1904.77869	2176.16992	-810.68494	1903.79333	2012.02930	-910.82458	1918.28516	2005.82312	-694.87036	2152.92798	2265.14868	-1001.81506	2197.97021	2263.49341	
